PathFileType	4	(X/Y/Z)	C:\Users\Balu\Nextcloud\Documents\MA\Daten\C3D\P03\2016 - pre\Static01\marker_experimental.trc
DataRate	CameraRate	NumFrames	NumMarkers	Units	OrigDataRate	OrigDataStartFrame	OrigNumFrames
150.000000	150.000000	4	104	mm	150.000000	75	150
Frame#	Time	LFHD			LBHD			RFHD			RBHD			C7			T10			CLAV			STRN			RBAK			LSHO			LUPA			LELB			LFRA			LWRB			LWRA			LFIN			RSHO			RUPA			RELB			RFRA			RWRB			RWRA			RFIN			SACR			LASI			RASI			LT1			LT2			LT3			LS1			LS2			LS3			LHEE			LTOE			RT1			RT2			RT3			RS1			RS2			RS3			RHEE			RTOE			LKNE			LKNM			LANK			LANM			RKNM			RKNE			RANM			RANK			SACO			SACA			SACL			SACP			LKJC			RKJC			LAJC			RAJC			LMMA			RMMA			LTHI			RTHI			LTIB			RTIB			funktRKJC			funktLKJC			funktRHIP			funktLHIP			LHJC			RHJC			LPelvisAngles			RPelvisAngles			LFootProgressAngles			RFootProgressAngles			LHipAngles			RHipAngles			LKneeAngles			RKneeAngles			LAnkleAngles			RAnkleAngles			LFFootAngles			RFFootAngles			LAbsAnkleAngle			RAbsAnkleAngle			RNeckAngles			LNeckAngles			RSpineAngles			LSpineAngles			LShoulderAngles			LElbowAngles			LWristAngles			RShoulderAngles			RElbowAngles			RWristAngles			RThoraxAngles			LThoraxAngles			RHeadAngles			LHeadAngles			LNormalisedGRF			RNormalisedGRF			LGroundReactionForce			RGroundReactionForce			LGRF			RGRF			
		X1	Y1	Z1	X2	Y2	Z2	X3	Y3	Z3	X4	Y4	Z4	X5	Y5	Z5	X6	Y6	Z6	X7	Y7	Z7	X8	Y8	Z8	X9	Y9	Z9	X10	Y10	Z10	X11	Y11	Z11	X12	Y12	Z12	X13	Y13	Z13	X14	Y14	Z14	X15	Y15	Z15	X16	Y16	Z16	X17	Y17	Z17	X18	Y18	Z18	X19	Y19	Z19	X20	Y20	Z20	X21	Y21	Z21	X22	Y22	Z22	X23	Y23	Z23	X24	Y24	Z24	X25	Y25	Z25	X26	Y26	Z26	X27	Y27	Z27	X28	Y28	Z28	X29	Y29	Z29	X30	Y30	Z30	X31	Y31	Z31	X32	Y32	Z32	X33	Y33	Z33	X34	Y34	Z34	X35	Y35	Z35	X36	Y36	Z36	X37	Y37	Z37	X38	Y38	Z38	X39	Y39	Z39	X40	Y40	Z40	X41	Y41	Z41	X42	Y42	Z42	X43	Y43	Z43	X44	Y44	Z44	X45	Y45	Z45	X46	Y46	Z46	X47	Y47	Z47	X48	Y48	Z48	X49	Y49	Z49	X50	Y50	Z50	X51	Y51	Z51	X52	Y52	Z52	X53	Y53	Z53	X54	Y54	Z54	X55	Y55	Z55	X56	Y56	Z56	X57	Y57	Z57	X58	Y58	Z58	X59	Y59	Z59	X60	Y60	Z60	X61	Y61	Z61	X62	Y62	Z62	X63	Y63	Z63	X64	Y64	Z64	X65	Y65	Z65	X66	Y66	Z66	X67	Y67	Z67	X68	Y68	Z68	X69	Y69	Z69	X70	Y70	Z70	X71	Y71	Z71	X72	Y72	Z72	X73	Y73	Z73	X74	Y74	Z74	X75	Y75	Z75	X76	Y76	Z76	X77	Y77	Z77	X78	Y78	Z78	X79	Y79	Z79	X80	Y80	Z80	X81	Y81	Z81	X82	Y82	Z82	X83	Y83	Z83	X84	Y84	Z84	X85	Y85	Z85	X86	Y86	Z86	X87	Y87	Z87	X88	Y88	Z88	X89	Y89	Z89	X90	Y90	Z90	X91	Y91	Z91	X92	Y92	Z92	X93	Y93	Z93	X94	Y94	Z94	X95	Y95	Z95	X96	Y96	Z96	X97	Y97	Z97	X98	Y98	Z98	X99	Y99	Z99	X100	Y100	Z100	X101	Y101	Z101	X102	Y102	Z102	X103	Y103	Z103	X104	Y104	Z104	

76	0.5	-1137.076171875	1439.044311523438	-386.1624145507811	-998.0889282226562	1420.072998046875	-364.5429077148436	-1142.953857421875	1440.094604492188	-502.1629638671874	-990.3739624023438	1420.715942382812	-513.2630615234374	-966.1526489257812	1274.560424804688	-445.4058227539062	-914.6336669921875	1095.8837890625	-446.6950683593749	-1096.443481445312	1211.496459960938	-429.5942382812499	-1128.293090820312	1158.165771484375	-425.1489257812499	-934.422607421875	1178.14453125	-544.1524047851561	-1039.47998046875	1262.483276367188	-313.7251281738281	-976.3984375	1046.218139648438	-219.8135681152343	-966.004150390625	972.901611328125	-191.1369628906249	-980.490234375	890.1724243164062	-147.2404632568359	-1023.704528808594	769.9935913085938	-90.97644805908199	-1081.39501953125	775.2399291992188	-125.8918380737304	-1110.171020507812	717.4998779296875	-79.37397003173824	-1063.073486328125	1251.043334960938	-561.5911254882811	-1054.250244140625	1077.501098632812	-651.7343139648436	-1032.541015625	958.9257202148438	-705.9978637695311	-1094.028442382812	830.5969848632812	-758.518798828125	-1106.4365234375	750.6001586914062	-778.7715454101562	-1148.391723632812	746.6441650390625	-726.144287109375	-1190.526000976562	700.1386108398438	-771.3746337890625	-914.4854736328125	875.4142456054688	-430.9673156738281	-1070.68212890625	870.7720336914062	-279.6664733886718	-1122.073486328125	877.9996948242188	-522.6777954101562	-1126.661987304688	586.51123046875	-243.7948303222656	-1078.057861328125	474.7353515625	-231.6203308105468	-1201.816772460938	532.1311645507812	-276.5366821289062	-1032.361938476562	217.4752960205078	-283.0831298828125	-950.117919921875	148.4938507080078	-343.0146179199219	-1061.423950195312	132.1348571777344	-254.4406890869141	-973.7232055664062	41.73381423950197	-368.0487976074219	-1083.07177734375	41.30725097656251	-262.2227783203125	-1131.62841796875	607.2088012695312	-593.6067504882812	-1055.50830078125	508.6707458496094	-586.9938354492188	-1197.091674804688	534.4330444335938	-583.8339233398438	-1089.093505859375	266.4491577148438	-587.7312622070312	-981.677978515625	216.8509826660157	-562.608642578125	-1116.880615234375	176.1982727050782	-582.74365234375	-981.7697143554688	44.93220520019534	-500.2057800292969	-1123.321044921875	41.73753356933597	-570.5234985351562	-1146.632202148438	433.0534057617188	-268.0230712890625	-1163.332885742188	421.8644409179688	-367.4410705566406	-994.1181030273438	49.70633316040041	-304.8709716796875	-1044.861694335938	47.44105148315432	-356.9505920410156	-1164.93701171875	424.3839111328126	-466.9848327636719	-1164.745483398438	439.7857971191407	-569.6671142578125	-1062.658325195312	52.85050582885745	-490.7003173828125	-1019.0234375	47.56452178955082	-552.3162231445312	-982.8659057617188	875.1888427734375	-425.1535034179687	-988.54150390625	875.148681640625	-423.9544067382812	-981.6661376953125	875.0201416015625	-419.4804077148437	-982.9098510742188	933.1730346679688	-423.4198913574218	-1154.982543945312	427.4589233398438	-317.7320556640625	-1164.84130859375	432.0848693847657	-518.3259887695312	-1019.489868164062	48.57369232177737	-330.9107666015625	-1040.8408203125	50.20751571655276	-521.50830078125	-1044.861694335938	47.44105148315432	-356.9505920410156	-1062.658325195312	52.85050582885745	-490.7003173828125	-1082.241577148438	611.7417602539062	-225.7979736328125	-1115.715576171875	624.0269165039062	-603.7774047851562	-1008.456237792969	244.0903472900391	-242.4558563232422	-1039.510620117188	243.4971771240235	-614.041748046875	0	0	0	0	0	0	0	0	0	0	0	0	-1042.887451171875	782.8394165039062	-355.7215881347656	-1066.340698242188	785.3953247070312	-469.3178405761718	0.04329631105065346	-11.93440055847168	1.712740659713744	0.04329631105065346	11.93440055847168	-1.712740659713744	0.3724363148212433	-44.07520294189453	-12.9043664932251	1.303079128265381	-26.41663360595703	-8.955424308776857	18.72328567504883	4.788010597229004	3.720488548278809	14.04387664794922	-9.918828964233398	9.021099090576172	37.87028884887695	-33.54271697998047	-2.150833606719973	33.56121826171875	-30.57393836975098	-7.092020034790041	15.09467029571533	-2.568711996078491	-1.258740425109864	14.75530338287354	5.271888256072998	0.4436256587505344	2.435112150171812e-15	-1.361748106121315e-31	2.223903425982768e-15	-1.192708045940846e-15	-1.590277359294755e-15	-6.038084105381173e-15	15.02919387817383	0	0	14.64964389801025	0	0	-12.35934162139893	8.37265682220459	0.7441603541374212	-12.35934162139893	-8.37265682220459	-0.7441603541374212	4.504815101623535	5.730622291564941	-2.996944427490234	4.504815101623535	-5.730622291564941	2.996944427490234	-9.380740165710449	-11.38141059875488	-19.12481307983398	38.53108978271484	1.396263530142883e-12	3.975693557055651e-15	16.14438819885254	128.8679962158203	12.54400825500489	-7.969946384429932	0.7802909016609207	-24.79020881652832	36.43174743652344	-2.415631280075492e-12	3.975693557055417e-15	19.23546600341797	132.7877197265625	0.3997514247894368	4.845897197723389	6.282415390014648	0.7765785455703739	4.845897197723389	-6.282415390014648	-0.7765785455703739	7.478281021118164	-2.048694133758545	-0.4151128232479097	7.478281021118164	2.048694133758545	0.4151128232479097	0	0	0	0	0	0	0	0	0	0	0	0	0	0	0	0	0	0	
77	0.5066666666666667	-1137.318115234375	1438.893798828125	-386.3157348632811	-998.350341796875	1420.008056640625	-364.5366210937499	-1143.049438476562	1439.99951171875	-502.3153686523436	-990.4615478515625	1420.707397460938	-513.2495117187499	-966.1751098632812	1274.51806640625	-445.4821777343749	-914.6346435546875	1095.829956054688	-446.7048950195312	-1096.462890625	1211.421142578125	-429.6643676757812	-1128.2958984375	1158.10888671875	-425.1846618652343	-934.4857788085938	1178.060791015625	-544.2485961914061	-1039.541870117188	1262.428466796875	-313.8051452636718	-976.4635009765625	1046.200927734375	-219.8329010009765	-966.0765380859375	972.9080810546875	-191.1085205078124	-980.5693969726562	890.1802978515625	-147.1986541748046	-1023.789978027344	769.9976196289062	-90.93565368652339	-1081.441284179688	775.2133178710938	-125.9138793945312	-1110.240234375	717.476806640625	-79.4049911499023	-1063.130249023438	1250.969116210938	-561.6723632812499	-1054.275024414062	1077.4443359375	-651.8383789062499	-1032.54248046875	958.8829956054688	-706.1320190429686	-1094.026489257812	830.5215454101562	-758.5447387695312	-1106.424438476562	750.5122680664062	-778.7670288085938	-1148.310791015625	746.5419311523438	-726.094482421875	-1190.4765625	700.0248413085938	-771.2523803710938	-914.4596557617188	875.3569946289062	-430.8800659179687	-1070.744506835938	870.7755126953125	-279.6748352050781	-1121.98095703125	877.8759155273438	-522.7283935546875	-1126.652221679688	586.5236206054688	-243.6646881103515	-1077.998779296875	474.751220703125	-231.5150299072265	-1201.815185546875	532.1201782226562	-276.3814086914062	-1032.330932617188	217.4727478027344	-283.0346069335938	-950.118896484375	148.5164642333985	-343.02587890625	-1061.351440429688	132.1250762939453	-254.3800964355469	-973.7266235351562	41.74193954467776	-368.0436401367188	-1083.037963867188	41.29845428466798	-262.1761474609375	-1131.6416015625	607.0964965820312	-593.661865234375	-1055.599853515625	508.4913330078126	-587.0225830078125	-1197.16259765625	534.381591796875	-583.9072265625	-1089.201538085938	266.3934631347657	-587.7604370117188	-981.7896728515625	216.8379821777344	-562.6573486328125	-1116.950927734375	176.1346588134766	-582.771728515625	-981.777587890625	44.93818664550784	-500.1935119628906	-1123.319458007812	41.74003219604496	-570.52783203125	-1146.501831054688	433.0154418945312	-267.9260864257812	-1163.372192382812	421.8540954589844	-367.2807006835938	-994.10302734375	49.6897773742676	-304.8564453125	-1044.852416992188	47.46706390380862	-356.9220581054688	-1165.16552734375	424.3123779296876	-467.0796203613281	-1164.907348632812	439.7187805175782	-569.7322998046875	-1062.681030273438	52.8489799499512	-490.7001037597656	-1019.039367675781	47.56694030761722	-552.3150634765625	-982.83544921875	875.1278076171875	-425.1101379394531	-988.5118408203125	875.0877075195312	-423.9146728515624	-981.6393432617188	874.9620361328125	-419.4362182617187	-982.8860473632812	933.1128540039062	-423.4053649902343	-1154.93701171875	427.4347839355469	-317.6033935546875	-1165.036499023438	432.0155639648438	-518.4059448242188	-1019.477722167969	48.57841873168947	-330.8892517089844	-1040.860229492188	50.20796203613284	-521.507568359375	-1044.852416992188	47.46706390380862	-356.9220581054688	-1062.681030273438	52.8489799499512	-490.7001037597656	-1082.029418945312	611.6765747070312	-225.7394256591797	-1115.706909179688	623.9653930664062	-603.8169555664062	-1008.426086425781	244.0552215576172	-242.3937530517578	-1039.618041992188	243.4735870361328	-614.076904296875	0	0	0	0	0	0	0	0	0	0	0	0	-1042.892700195312	782.8074951171875	-355.6704711914062	-1066.27294921875	785.3038330078125	-469.2831115722656	0.05002257972955704	-11.89744758605957	1.683859586715698	0.05002257972955704	11.89744758605957	-1.683859586715698	0.3831483125686646	-44.09590911865234	-12.88830947875977	1.30326771736145	-26.42514038085938	-8.961743354797365	18.71661376953125	4.643218040466309	3.717555046081543	14.08753967285156	-9.903484344482422	9.065546989440918	37.86747741699219	-33.45584487915039	-2.115327596664431	33.63306045532227	-30.53005027770996	-7.09877395629883	15.09172439575195	-2.58383321762085	-1.262548923492432	14.78299999237061	5.260254383087158	0.4414220154285434	1.441188866787039e-15	3.180554718589511e-15	-9.516815808986116e-15	0	1.590277359294755e-15	5.143553362093115e-15	15.02553176879883	0	0	14.67598342895508	0	0	-12.33724784851074	8.440655708312988	0.7883154749870306	-12.33724784851074	-8.440655708312988	-0.7883154749870306	4.508126735687256	5.696997165679932	-2.993055343627929	4.508126735687256	-5.696997165679932	2.993055343627929	-9.375735282897949	-11.34001350402832	-19.1237678527832	38.52872085571289	-3.468394842165434e-12	-3.180554718589723e-15	16.14488983154297	128.886474609375	12.5491008758545	-7.982884407043457	0.8747404217720047	-24.83064460754395	36.45602798461914	-4.770832099060089e-14	2.385416091881689e-15	19.2430534362793	132.7705841064453	0.3932976126670918	4.855380058288574	6.281251907348633	0.8014208078384403	4.855380058288574	-6.281251907348633	-0.8014208078384403	7.443650245666504	-2.112293243408203	-0.4478907883167268	7.443650245666504	2.112293243408203	0.4478907883167268	0	0	0	0	0	0	0	0	0	0	0	0	0	0	0	0	0	0	
78	0.5133333333333334	-1137.555786132812	1438.736206054688	-386.467071533203	-998.6046752929688	1419.943115234375	-364.5367736816405	-1143.142578125	1439.899536132812	-502.4724121093749	-990.5567626953125	1420.697021484375	-513.2461547851561	-966.1931762695312	1274.473022460938	-445.5561828613281	-914.6363525390625	1095.772216796875	-446.7177734374999	-1096.485595703125	1211.340454101562	-429.7344665527343	-1128.299072265625	1158.04345703125	-425.2193908691406	-934.5313720703125	1177.96875	-544.3334960937499	-1039.604858398438	1262.36767578125	-313.8872985839843	-976.5372314453125	1046.177978515625	-219.8498535156249	-966.130615234375	972.928466796875	-191.0617370605468	-980.6519165039062	890.1795043945312	-147.1608581542968	-1023.870544433594	770.00537109375	-90.87648010253902	-1081.491577148438	775.1879272460938	-125.935317993164	-1110.31591796875	717.4580078125	-79.42383575439449	-1063.182739257812	1250.885498046875	-561.7598266601561	-1054.298217773438	1077.377075195312	-651.9442749023436	-1032.534790039062	958.8256225585938	-706.2664184570311	-1094.021728515625	830.4324951171875	-758.5798950195312	-1106.381469726562	750.4240112304688	-778.7354736328125	-1148.226318359375	746.431640625	-726.0498046875	-1190.420654296875	699.9046630859375	-771.149658203125	-914.4215698242188	875.2998657226562	-430.7767333984374	-1070.817626953125	870.7841796875	-279.6825866699218	-1121.88623046875	877.7429809570312	-522.7841796875	-1126.650756835938	586.5391845703125	-243.5294494628906	-1077.924072265625	474.7704772949219	-231.4160766601562	-1201.815795898438	532.109375	-276.2241516113281	-1032.303588867188	217.4640655517578	-282.9661560058594	-950.10791015625	148.537109375	-343.0055541992188	-1061.291259765625	132.1089935302735	-254.3158721923828	-973.72509765625	41.75086593627932	-368.0310974121094	-1083.00146484375	41.28805541992189	-262.1275329589844	-1131.660034179688	606.9848022460938	-593.7154541015625	-1055.702758789062	508.3084716796876	-587.0607299804688	-1197.244018554688	534.3290405273438	-583.9793090820312	-1089.314208984375	266.3361206054688	-587.791748046875	-981.8963623046875	216.8352813720703	-562.7015991210938	-1117.02587890625	176.068115234375	-582.8004150390625	-981.78564453125	44.94511795043948	-500.1815185546875	-1123.317626953125	41.74311447143558	-570.53369140625	-1146.457275390625	433.0289001464844	-267.7944946289062	-1163.391723632812	421.8571472167969	-367.1345825195312	-994.0831298828125	49.67188644409182	-304.834228515625	-1044.835083007812	47.49422836303713	-356.8861083984375	-1165.401123046875	424.2393188476563	-467.1852416992188	-1165.087890625	439.6460876464844	-569.7952270507812	-1062.704833984375	52.84704589843753	-490.7031860351562	-1019.056945800781	47.56859970092777	-552.3151245117188	-982.80810546875	875.06591796875	-425.0627746582031	-988.4853515625	875.0258178710938	-423.8713378906249	-981.6160278320312	874.9035034179688	-419.3879089355468	-982.8668212890625	933.0519409179688	-423.3908386230468	-1154.924560546875	427.4430236816406	-317.4645385742188	-1165.244506835938	431.9426879882813	-518.490234375	-1019.459106445312	48.58305740356447	-330.8601684570312	-1040.880859375	50.20782470703128	-521.5091552734375	-1044.835083007812	47.49422836303713	-356.8861083984375	-1062.704833984375	52.84704589843753	-490.7031860351562	-1081.96044921875	611.6693115234375	-225.6628112792968	-1115.714233398438	623.9050903320312	-603.856689453125	-1008.405212402344	244.0402069091797	-242.3097534179687	-1039.732177734375	243.4493560791016	-614.1154174804688	0	0	0	0	0	0	0	0	0	0	0	0	-1042.902954101562	782.7771606445312	-355.6136779785156	-1066.203857421875	785.207275390625	-469.2440490722656	0.05804744362831116	-11.85729026794434	1.65183138847351	0.05804744362831116	11.85729026794434	-1.65183138847351	0.3953422605991364	-44.11249160766602	-12.87280559539795	1.302847862243652	-26.43372917175293	-8.969073295593263	18.7159252166748	4.561424255371094	3.712318897247315	14.13441848754883	-9.878006935119629	9.114093780517578	37.87203979492188	-33.4183464050293	-2.120586156845095	33.70825576782227	-30.49016952514648	-7.110018253326418	15.09136486053467	-2.598221778869629	-1.266385793685913	14.81286716461182	5.24833345413208	0.4391978979110721	-6.957463513089003e-16	-3.18055471858951e-15	-8.995006244027787e-15	9.939233892638914e-16	1.590277359294755e-15	1.565429224270577e-15	15.02559471130371	0	0	14.70361995697021	0	0	-12.31273078918457	8.505973815917969	0.8315994143486029	-12.31273078918457	-8.505973815917969	-0.8315994143486029	4.509973049163818	5.660031795501709	-2.984738111495971	4.509973049163818	-5.660031795501709	2.984738111495971	-9.376688003540039	-11.28186702728271	-19.12983703613281	38.53443145751953	-3.070825494930207e-12	-2.38541609188188e-15	16.14842987060547	128.9004516601562	12.54331779479981	-7.997227668762207	0.9709547162055985	-24.86852073669434	36.48183059692383	3.081957432315985e-12	-5.565970810471014e-15	19.24833106994629	132.7368621826172	0.3663091659545979	4.864233016967773	6.280115604400635	0.8251599669456485	4.864233016967773	-6.280115604400635	-0.8251599669456485	7.407205104827881	-2.173245191574097	-0.4801741540431977	7.407205104827881	2.173245191574097	0.4801741540431977	0	0	0	0	0	0	0	0	0	0	0	0	0	0	0	0	0	0	
79	0.52	-1137.788696289062	1438.571411132812	-386.6134643554686	-998.849365234375	1419.87841796875	-364.5451354980468	-1143.240112304688	1439.7919921875	-502.6310119628905	-990.6602783203125	1420.686157226562	-513.2552490234374	-966.211669921875	1274.42529296875	-445.6296997070312	-914.638916015625	1095.71240234375	-446.7348937988281	-1096.512451171875	1211.252075195312	-429.8039855957031	-1128.305786132812	1157.963623046875	-425.2564392089843	-934.5661010742188	1177.871337890625	-544.4075927734374	-1039.672241210938	1262.302734375	-313.9720458984374	-976.6207275390625	1046.152099609375	-219.8612365722656	-966.1954345703125	972.9321899414062	-191.0265960693359	-980.7401123046875	890.17138671875	-147.128677368164	-1023.943176269531	770.019287109375	-90.79685211181636	-1081.550659179688	775.16455078125	-125.9551620483398	-1110.399169921875	717.44580078125	-79.42947387695308	-1063.230712890625	1250.79150390625	-561.8506469726561	-1054.317260742188	1077.30029296875	-652.0479125976561	-1032.515014648438	958.75439453125	-706.3966674804686	-1094.008178710938	830.3283081054688	-758.6256103515625	-1106.319946289062	750.3309936523438	-778.6890258789062	-1148.136962890625	746.3123168945312	-726.0098266601562	-1190.349853515625	699.7744140625	-771.0628662109375	-914.3710327148438	875.2432250976562	-430.6593017578124	-1070.8994140625	870.7962646484375	-279.6895141601562	-1121.78955078125	877.6047973632812	-522.84375	-1126.660278320312	586.5563354492188	-243.3938293457031	-1077.836181640625	474.7904357910156	-231.3224639892578	-1201.821166992188	532.099853515625	-276.0686340332031	-1032.281616210938	217.4500122070313	-282.8793640136719	-950.0845947265625	148.5568542480469	-342.9569396972656	-1061.245239257812	132.0858459472657	-254.2502288818359	-973.7197265625	41.76027297973635	-368.0130920410156	-1082.964477539062	41.27262496948244	-262.0804443359375	-1131.680419921875	606.876220703125	-593.765380859375	-1055.808837890625	508.1281433105469	-587.1024780273438	-1197.327270507812	534.2760620117188	-584.0463256835938	-1089.427368164062	266.2794799804688	-587.8241577148438	-981.9927978515625	216.8413543701172	-562.7388916015625	-1117.101318359375	176.0003814697266	-582.829345703125	-981.79345703125	44.95261001586917	-500.170166015625	-1123.315673828125	41.7463417053223	-570.5411376953125	-1146.474243164062	433.0675354003906	-267.63525390625	-1163.394775390625	421.8731994628906	-367.0060729980469	-994.0574951171875	49.6560974121094	-304.8023986816406	-1044.81103515625	47.5217971801758	-356.8444519042969	-1165.628295898438	424.1670227050782	-467.2880554199219	-1165.275634765625	439.5694885253907	-569.8560180664062	-1062.726684570312	52.84449768066409	-490.7083740234375	-1019.07470703125	47.56922149658207	-552.3165893554688	-982.7830200195312	875.0038452148438	-425.0116271972656	-988.4611206054688	874.9636840820312	-423.8243713378906	-981.5950927734375	874.8449096679688	-419.3357543945312	-982.8507080078125	932.9907836914062	-423.3737182617187	-1154.9345703125	427.4703674316406	-317.3206787109375	-1165.452026367188	431.8682556152344	-518.572021484375	-1019.434204101562	48.5889472961426	-330.8234252929688	-1040.900756835938	50.20685958862308	-521.5125122070312	-1044.81103515625	47.5217971801758	-356.8444519042969	-1062.726684570312	52.84449768066409	-490.7083740234375	-1081.992553710938	611.7005615234375	-225.5734252929687	-1115.73486328125	623.8466796875	-603.8930053710938	-1008.3916015625	244.0390930175782	-242.2101898193359	-1039.847778320312	243.4244232177735	-614.1547241210938	0	0	0	0	0	0	0	0	0	0	0	0	-1042.917358398438	782.7482299804688	-355.5529174804687	-1066.1337890625	785.1080932617188	-469.2020874023437	0.06690418720245361	-11.8145170211792	1.617903470993041	0.06690418720245361	11.8145170211792	-1.617903470993041	0.413065493106842	-44.12259674072266	-12.8540678024292	1.301791548728943	-26.44197273254395	-8.977242469787599	18.71896171569824	4.52387809753418	3.705621480941773	14.18236637115479	-9.84180736541748	9.163991928100586	37.8816032409668	-33.41538619995117	-2.153723716735842	33.78281021118164	-30.45554351806641	-7.124869346618654	15.0902099609375	-2.6086585521698	-1.269090294837952	14.84310722351074	5.235498428344727	0.436729580163956	-1.490885030956278e-15	-2.274651831817707e-31	3.714788351059928e-15	-1.192708045940846e-15	1.590277359294755e-15	-3.006618196936734e-15	15.02766799926758	0	0	14.73112964630127	0	0	-12.28522777557373	8.566476821899414	0.8730626106262213	-12.28522777557373	-8.566476821899414	-0.8730626106262213	4.511312484741211	5.620296478271484	-2.972550630569458	4.511312484741211	-5.620296478271484	2.972550630569458	-9.374197959899902	-11.24241542816162	-19.13447761535645	38.53591918945312	4.739026553991776e-13	1.590277359294784e-15	16.15452003479004	128.9375457763672	12.54812526702882	-8.012351036071777	1.063480496406557	-24.9025707244873	36.50900268554688	-2.274096492713151e-12	-1.392482495376692e-28	19.24560165405273	132.6962585449219	0.3295770883560262	4.873003482818604	6.278974056243896	0.8469995260238651	4.873003482818604	-6.278974056243896	-0.8469995260238651	7.367934226989746	-2.229536056518555	-0.5113423466682435	7.367934226989746	2.229536056518555	0.5113423466682435	0	0	0	0	0	0	0	0	0	0	0	0	0	0	0	0	0	0	
